# xmcd
#
# Track frame offsets:
#	150
#	14474
#	27520
#	41244
#	53980
#	68209
#	82535
#	95189
#	108312
#	120933
#	134896
#	147771
#	161700
#	174725
#	187601
#	199721
#	211988
#	224438
#	236239
#	249671
#	262424
#	274863
#	287703
#	300183
#	312129
#
# Disc length: 4321
#
# Revision: 1
# Processed by: cddbd v1.5.1PL0 Copyright (c) Steve Scherf et al.
# Submitted via: audiograbber 1.81.03
# Normalized: r0:DSETVAR1
#
DISCID=7810df19
DTITLE=Various Artist - 100 plus grand Country Music 4-1
DYEAR=2002
DGENRE=Country
TTITLE0=Alfred G. Karnes - I'm bound for the promised land(1929)
TTITLE1=Carter Family - Bury me under the weeping willow tree(1927)
TTITLE2=Jimmie Rodgers - The soldier's sweetheart(1927)
TTITLE3=Carter Family - Keep on the sunny Side(1928)
TTITLE4=Carter Family - Wildwood flower(1928)
TTITLE5=Jimmie Rodgers - Brakeman's blues(1928)
TTITLE6=Jimmie Rodgers - Jimmie's Texas blues(1929)
TTITLE7=Joe Falcon and Cleoma Breaux - C'est si triste sans lui(1929)
TTITLE8=Charlie Poole and North Carolina Ramblers - He rambled
TTITLE9=Darby and Tarlton - Freight train rambler(1929)
TTITLE10=Cliff Carlise - Tom cat blues(1932)
TTITLE11=Patsy Montana - I want to be a cowboy's sweetheart(1935)
TTITLE12=Blue Sky Boys - I'm just here to get my baby out of jail(1936)
TTITLE13=Rouse Brothers - Orange Blossom Special(1939)
TTITLE14=Roy Hall and Blue Ridge Enternainers - Don't let your sweet love die(1940)
TTITLE15=Ted Daffan - Born to lose(1942)
TTITLE16=Jack Guthrie - Oklahoma Hills(1944)
TTITLE17=Jerry Irby - Drivin' nails in my Coffin(1946)
TTITLE18=Merle Travis - Divorce me C.O.D.(1946)
TTITLE19=Merle Travis - Sixteen tons(1946)
TTITLE20=Molly O'Day and Cumberland Mountain Folks - Tramp on the street(1946)
TTITLE21=Molly O'Day and Cumberland Mountain Folks - The evening train(1949)
TTITLE22=Buddy Duhon and Harry Choates and Fiddle - Old Cow Blues(1947)
TTITLE23=Hank Williams and Drifting Cowboys - Honky Tonkin'(1947)
TTITLE24=Hank Williams and Drifting Cowboys - Rootie Tootie(1947)
EXTD=
EXTT0=
EXTT1=
EXTT2=
EXTT3=
EXTT4=
EXTT5=
EXTT6=
EXTT7=
EXTT8=
EXTT9=
EXTT10=
EXTT11=
EXTT12=
EXTT13=
EXTT14=
EXTT15=
EXTT16=
EXTT17=
EXTT18=
EXTT19=
EXTT20=
EXTT21=
EXTT22=
EXTT23=
EXTT24=
PLAYORDER=
